<svg viewBox="0 0 24 24" fill="none" xmlns="http://www.w3.org/2000/svg">
  <g transform="translate(2.25 5)">
    <path
      d="M7.75 8C9.40685 8 10.75 9.34315 10.75 11C10.75 12.6569 9.40685 14 7.75 14H5.75C4.35214 14 3.17778 13.0439 2.84473 11.75H0.75C0.335786 11.75 0 11.4142 0 11C0 10.5858 0.335786 10.25 0.75 10.25H2.84473C3.17778 8.95611 4.35214 8 5.75 8H7.75ZM18.75 10.25C19.1642 10.25 19.5 10.5858 19.5 11C19.5 11.4142 19.1642 11.75 18.75 11.75H13.75C13.3358 11.75 13 11.4142 13 11C13 10.5858 13.3358 10.25 13.75 10.25H18.75ZM13.75 0C15.1479 0 16.3222 0.956106 16.6553 2.25H18.75C19.1642 2.25 19.5 2.58579 19.5 3C19.5 3.41421 19.1642 3.75 18.75 3.75H16.6553C16.3222 5.04389 15.1479 6 13.75 6H11.75C10.0931 6 8.75 4.65685 8.75 3C8.75 1.34315 10.0931 0 11.75 0H13.75ZM5.75 2.25C6.16421 2.25 6.5 2.58579 6.5 3C6.5 3.41421 6.16421 3.75 5.75 3.75H0.75C0.335786 3.75 0 3.41421 0 3C0 2.58579 0.335786 2.25 0.75 2.25H5.75Z"
      fill="currentColor"
    />
  </g>
</svg>
