<svg width="36" height="36" viewBox="0 0 36 36" fill="none" xmlns="http://www.w3.org/2000/svg">
<path d="M15.7613 6.97472C15.7298 6.66186 15.7644 6.3459 15.8626 6.04721C15.9608 5.74851 16.1205 5.47372 16.3315 5.24055C16.5424 5.00738 16.7999 4.82101 17.0872 4.69345C17.3746 4.5659 17.6856 4.5 18 4.5C18.3144 4.5 18.6254 4.5659 18.9128 4.69345C19.2001 4.82101 19.4576 5.00738 19.6686 5.24055C19.8795 5.47372 20.0392 5.74851 20.1374 6.04721C20.2356 6.3459 20.2702 6.66186 20.2387 6.97472L19.3658 21.2622C19.332 21.601 19.1736 21.9152 18.9212 22.1437C18.6688 22.3722 18.3405 22.4988 18 22.4988C17.6595 22.4988 17.3312 22.3722 17.0788 22.1437C16.8264 21.9152 16.668 21.601 16.6343 21.2622L15.7613 6.97472ZM15.75 26.9997C15.75 26.403 15.9871 25.8307 16.409 25.4087C16.831 24.9868 17.4033 24.7497 18 24.7497C18.5967 24.7497 19.169 24.9868 19.591 25.4087C20.0129 25.8307 20.25 26.403 20.25 26.9997C20.25 27.5965 20.0129 28.1688 19.591 28.5907C19.169 29.0127 18.5967 29.2497 18 29.2497C17.4033 29.2497 16.831 29.0127 16.409 28.5907C15.9871 28.1688 15.75 27.5965 15.75 26.9997Z" fill="#EF4452"/>
</svg>
